<?xml version="1.0" encoding="UTF-8"?>
<svg xmlns="http://www.w3.org/2000/svg" xmlns:xlink="http://www.w3.org/1999/xlink" width="24px" height="24px" viewBox="0 0 24 24" version="1.1">
<g id="surface1">
<path style=" stroke:none;fill-rule:nonzero;fill:rgb(0%,0%,0%);fill-opacity:1;" d="M 23.953125 8.199219 C 23.941406 8.121094 23.917969 8.046875 23.890625 7.976562 C 23.882812 7.960938 23.882812 7.945312 23.875 7.929688 C 23.875 7.929688 23.875 7.925781 23.871094 7.925781 C 23.871094 7.921875 23.871094 7.921875 23.871094 7.921875 L 21.222656 2.292969 C 21.214844 2.28125 21.203125 2.269531 21.195312 2.257812 C 21.1875 2.242188 21.183594 2.222656 21.171875 2.207031 C 21.152344 2.171875 21.125 2.144531 21.101562 2.113281 C 21.078125 2.082031 21.054688 2.050781 21.027344 2.019531 C 20.988281 1.980469 20.945312 1.945312 20.898438 1.910156 C 20.871094 1.886719 20.84375 1.863281 20.808594 1.84375 C 20.757812 1.8125 20.699219 1.789062 20.640625 1.765625 C 20.609375 1.753906 20.582031 1.738281 20.550781 1.730469 C 20.460938 1.703125 20.363281 1.6875 20.265625 1.6875 L 4.648438 1.6875 C 4.554688 1.6875 4.464844 1.703125 4.378906 1.726562 C 4.347656 1.734375 4.320312 1.75 4.289062 1.757812 C 4.234375 1.78125 4.179688 1.796875 4.128906 1.824219 C 4.097656 1.84375 4.070312 1.867188 4.042969 1.890625 C 4 1.917969 3.953125 1.949219 3.914062 1.984375 C 3.886719 2.011719 3.867188 2.042969 3.84375 2.074219 C 3.816406 2.105469 3.78125 2.136719 3.757812 2.175781 L 0.160156 7.800781 C 0.144531 7.824219 0.140625 7.847656 0.128906 7.871094 C 0.117188 7.890625 0.101562 7.90625 0.0898438 7.925781 C 0.0820312 7.949219 0.0820312 7.96875 0.0703125 7.992188 C 0.0507812 8.042969 0.0351562 8.09375 0.0234375 8.148438 C 0.015625 8.1875 0.0078125 8.230469 0.00390625 8.273438 C 0 8.324219 0 8.378906 0 8.429688 C 0.00390625 8.472656 0.0078125 8.515625 0.015625 8.558594 C 0.0234375 8.609375 0.0390625 8.660156 0.0585938 8.710938 C 0.0703125 8.75 0.0859375 8.792969 0.105469 8.835938 C 0.113281 8.847656 0.113281 8.863281 0.121094 8.878906 C 0.140625 8.914062 0.167969 8.941406 0.191406 8.972656 C 0.210938 9 0.222656 9.027344 0.242188 9.054688 L 11.121094 21.902344 C 11.308594 22.125 11.589844 22.28125 11.871094 22.273438 C 11.875 22.273438 11.878906 22.273438 11.878906 22.273438 C 11.894531 22.277344 11.910156 22.277344 11.925781 22.277344 C 11.925781 22.277344 11.925781 22.277344 11.929688 22.277344 C 12.023438 22.277344 12.113281 22.257812 12.203125 22.234375 C 12.230469 22.226562 12.253906 22.21875 12.28125 22.207031 C 12.34375 22.183594 12.410156 22.15625 12.46875 22.117188 C 12.488281 22.105469 12.511719 22.09375 12.53125 22.082031 C 12.601562 22.03125 12.667969 21.972656 12.726562 21.90625 L 23.71875 9.054688 C 23.730469 9.039062 23.742188 9.019531 23.753906 9.003906 C 23.769531 8.980469 23.792969 8.960938 23.808594 8.9375 C 23.824219 8.910156 23.832031 8.882812 23.84375 8.855469 C 23.863281 8.824219 23.878906 8.789062 23.894531 8.75 C 23.914062 8.699219 23.929688 8.644531 23.941406 8.589844 C 23.949219 8.550781 23.957031 8.515625 23.960938 8.480469 C 23.96875 8.417969 23.964844 8.359375 23.960938 8.300781 C 23.957031 8.265625 23.960938 8.230469 23.953125 8.199219 Z M 23.953125 8.199219 "/>
</g>
</svg>
